<?xml version="1.0" encoding="UTF-8" standalone="no"?>
<svg width="877px" height="309px" viewBox="0 0 877 309" version="1.1" xmlns="http://www.w3.org/2000/svg" xmlns:xlink="http://www.w3.org/1999/xlink" xmlns:sketch="http://www.bohemiancoding.com/sketch/ns">
    <!-- Generator: Sketch 3.2 (9961) - http://www.bohemiancoding.com/sketch -->
    <title>logo</title>
    <desc>Created with Sketch.</desc>
    <defs></defs>
    <g id="Page-1" stroke="none" stroke-width="1" fill="none" fill-rule="evenodd" sketch:type="MSPage">
        <g id="logo" sketch:type="MSArtboardGroup" fill="#FFFFFF">
            <path d="M-0.6,117.2 L7,117.2 L7,138.2 L7.4,138.2 C8.200004,134.999984 9.59999,131.966681 11.6,129.1 C13.60001,126.233319 16.033319,123.733344 18.9,121.6 C21.766681,119.466656 24.966649,117.800006 28.5,116.6 C32.033351,115.399994 35.733314,114.8 39.6,114.8 C44.533358,114.8 48.799982,115.433327 52.4,116.7 C56.000018,117.966673 59.066654,119.633323 61.6,121.7 C64.133346,123.766677 66.133326,126.099987 67.6,128.7 C69.066674,131.300013 70.066664,133.93332 70.6,136.6 L71,136.6 C74.066682,129.399964 78.166641,123.966685 83.3,120.3 C88.433359,116.633315 95.199958,114.8 103.6,114.8 C108.26669,114.8 112.566647,115.499993 116.5,116.9 C120.433353,118.300007 123.833319,120.433319 126.7,123.3 C129.566681,126.166681 131.799992,129.799978 133.4,134.2 C135.000008,138.600022 135.8,143.79997 135.8,149.8 L135.8,220 L128.2,220 L128.2,149.6 C128.2,143.066634 127.20001,137.933352 125.2,134.2 C123.19999,130.466648 120.833347,127.633343 118.1,125.7 C115.366653,123.766657 112.633347,122.566669 109.9,122.1 C107.166653,121.633331 105.066674,121.4 103.6,121.4 C98.93331,121.4 94.633353,122.199992 90.7,123.8 C86.766647,125.400008 83.366681,127.799984 80.5,131 C77.633319,134.200016 75.400008,138.166643 73.8,142.9 C72.199992,147.633357 71.4,153.066636 71.4,159.2 L71.4,220 L63.8,220 L63.8,149.6 C63.8,143.199968 62.833343,138.100019 60.9,134.3 C58.966657,130.499981 56.700013,127.666676 54.1,125.8 C51.499987,123.933324 48.833347,122.733336 46.1,122.2 C43.366653,121.666664 41.200008,121.4 39.6,121.4 C35.999982,121.4 32.266686,122.133326 28.4,123.6 C24.533314,125.066674 21.000016,127.333318 17.8,130.4 C14.599984,133.466682 12.00001,137.399976 10,142.2 C7.99999,147.000024 7,152.666634 7,159.2 L7,220 L-0.6,220 L-0.6,117.2 Z M146,117.2 L155,117.2 L193.2,211 L228.4,117.2 L237,117.2 L193,231 C190.866656,236.066692 188.900009,240.433315 187.1,244.1 C185.299991,247.766685 183.266678,250.466658 181,252.2 C178.33332,254.333344 175.166685,255.633331 171.5,256.1 C167.833315,256.566669 163.00003,256.8 157,256.8 L157,250.2 C162.466694,250.2 166.733318,249.766671 169.8,248.9 C172.866682,248.033329 175.73332,246.26668 178.4,243.6 C179.866674,242.133326 181.399992,239.433353 183,235.5 C184.600008,231.566647 186.599988,226.200034 189,219.4 L146,117.2 Z" id="myPINGO" opacity="0.4453125" sketch:type="MSShapeGroup"></path>
            <path d="M281.2,144.4 L281.2,101.6 L305.6,101.6 C309.200018,101.6 312.66665,101.866664 316,102.4 C319.33335,102.933336 322.266654,103.966659 324.8,105.5 C327.333346,107.033341 329.366659,109.199986 330.9,112 C332.433341,114.800014 333.2,118.466644 333.2,123 C333.2,127.533356 332.433341,131.199986 330.9,134 C329.366659,136.800014 327.333346,138.966659 324.8,140.5 C322.266654,142.033341 319.33335,143.066664 316,143.6 C312.66665,144.133336 309.200018,144.4 305.6,144.4 L281.2,144.4 Z M249.8,77.2 L249.8,220 L281.2,220 L281.2,168.8 L314.2,168.8 C323.133378,168.8 330.733302,167.500013 337,164.9 C343.266698,162.299987 348.366647,158.866688 352.3,154.6 C356.233353,150.333312 359.099991,145.433361 360.9,139.9 C362.700009,134.366639 363.6,128.733362 363.6,123 C363.6,117.133304 362.700009,111.466694 360.9,106 C359.099991,100.533306 356.233353,95.666688 352.3,91.4 C348.366647,87.133312 343.266698,83.700013 337,81.1 C330.733302,78.499987 323.133378,77.2 314.2,77.2 L249.8,77.2 Z M383.2,77.2 L383.2,220 L414.6,220 L414.6,77.2 L383.2,77.2 Z M442.2,77.2 L442.2,220 L471.6,220 L471.6,124.4 L472,124.4 L531.4,220 L562.8,220 L562.8,77.2 L533.4,77.2 L533.4,173 L533,173 L473.4,77.2 L442.2,77.2 Z M693.6,203.8 L696.8,220 L716.8,220 L716.8,142.8 L656.8,142.8 L656.8,166.2 L688.4,166.2 C687.466662,176.20005 684.166695,183.833307 678.5,189.1 C672.833305,194.366693 664.800052,197 654.4,197 C647.333298,197 641.333358,195.633347 636.4,192.9 C631.466642,190.166653 627.466682,186.533356 624.4,182 C621.333318,177.466644 619.100007,172.366695 617.7,166.7 C616.299993,161.033305 615.6,155.20003 615.6,149.2 C615.6,142.933302 616.299993,136.866696 617.7,131 C619.100007,125.133304 621.333318,119.900023 624.4,115.3 C627.466682,110.699977 631.466642,107.033347 636.4,104.3 C641.333358,101.566653 647.333298,100.2 654.4,100.2 C662.000038,100.2 668.46664,102.19998 673.8,106.2 C679.13336,110.20002 682.733324,116.19996 684.6,124.2 L714.6,124.2 C713.799996,116.066626 711.600018,108.866698 708,102.6 C704.399982,96.333302 699.833361,91.066688 694.3,86.8 C688.766639,82.533312 682.566701,79.300011 675.7,77.1 C668.833299,74.899989 661.73337,73.8 654.4,73.8 C643.466612,73.8 633.633377,75.733314 624.9,79.6 C616.166623,83.466686 608.80003,88.799966 602.8,95.6 C596.79997,102.400034 592.200016,110.366621 589,119.5 C585.799984,128.633379 584.2,138.53328 584.2,149.2 C584.2,159.600052 585.799984,169.299955 589,178.3 C592.200016,187.300045 596.79997,195.1333 602.8,201.8 C608.80003,208.4667 616.166623,213.699981 624.9,217.5 C633.633377,221.300019 643.466612,223.2 654.4,223.2 C661.333368,223.2 668.199966,221.766681 675,218.9 C681.800034,216.033319 687.999972,211.000036 693.6,203.8 L693.6,203.8 Z M767.4,149.2 C767.4,142.933302 768.099993,136.866696 769.5,131 C770.900007,125.133304 773.133318,119.900023 776.2,115.3 C779.266682,110.699977 783.266642,107.033347 788.2,104.3 C793.133358,101.566653 799.133298,100.2 806.2,100.2 C813.266702,100.2 819.266642,101.566653 824.2,104.3 C829.133358,107.033347 833.133318,110.699977 836.2,115.3 C839.266682,119.900023 841.499993,125.133304 842.9,131 C844.300007,136.866696 845,142.933302 845,149.2 C845,155.20003 844.300007,161.033305 842.9,166.7 C841.499993,172.366695 839.266682,177.466644 836.2,182 C833.133318,186.533356 829.133358,190.166653 824.2,192.9 C819.266642,195.633347 813.266702,197 806.2,197 C799.133298,197 793.133358,195.633347 788.2,192.9 C783.266642,190.166653 779.266682,186.533356 776.2,182 C773.133318,177.466644 770.900007,172.366695 769.5,166.7 C768.099993,161.033305 767.4,155.20003 767.4,149.2 L767.4,149.2 Z M736,149.2 C736,159.600052 737.599984,169.299955 740.8,178.3 C744.000016,187.300045 748.59997,195.1333 754.6,201.8 C760.60003,208.4667 767.966623,213.699981 776.7,217.5 C785.433377,221.300019 795.266612,223.2 806.2,223.2 C817.266722,223.2 827.13329,221.300019 835.8,217.5 C844.46671,213.699981 851.79997,208.4667 857.8,201.8 C863.80003,195.1333 868.399984,187.300045 871.6,178.3 C874.800016,169.299955 876.4,159.600052 876.4,149.2 C876.4,138.53328 874.800016,128.633379 871.6,119.5 C868.399984,110.366621 863.80003,102.400034 857.8,95.6 C851.79997,88.799966 844.46671,83.466686 835.8,79.6 C827.13329,75.733314 817.266722,73.8 806.2,73.8 C795.266612,73.8 785.433377,75.733314 776.7,79.6 C767.966623,83.466686 760.60003,88.799966 754.6,95.6 C748.59997,102.400034 744.000016,110.366621 740.8,119.5 C737.599984,128.633379 736,138.53328 736,149.2 L736,149.2 Z" id="myPINGO-2" sketch:type="MSShapeGroup"></path>
        </g>
    </g>
</svg>