<?xml version="1.0" encoding="UTF-8" standalone="no"?>
<svg width="202px" height="359px" viewBox="0 0 202 359" version="1.1" xmlns="http://www.w3.org/2000/svg" xmlns:xlink="http://www.w3.org/1999/xlink" xmlns:sketch="http://www.bohemiancoding.com/sketch/ns">
    <!-- Generator: Sketch 3.2 (9961) - http://www.bohemiancoding.com/sketch -->
    <title>Slice 1</title>
    <desc>Created with Sketch.</desc>
    <defs></defs>
    <g id="Page-1" stroke="none" stroke-width="1" fill="none" fill-rule="evenodd" sketch:type="MSPage">
        <g id="logo" sketch:type="MSLayerGroup">
            <g id="Ebene_1_1_" fill="#FFFFFF" sketch:type="MSShapeGroup">
                <path d="M129.914,7.138 C114.639,2.972 92.033,0.778 62.101,0.778 L0.727,0.778 L0.727,358.778 L54.727,358.778 L54.727,212.778 L79.922,212.778 C117.106,212.778 146.654,203.442 168.565,184.308 C190.473,165.177 201.43,139.37 201.43,106.656 C201.432,76.106 191.167,50.916 170.648,30.856 C158.919,19.285 145.34,11.304 129.914,7.138 Z M66.915,67.924 C75.614,67.924 82.665,74.975 82.665,83.674 C82.665,92.373 75.614,99.424 66.915,99.424 C58.216,99.424 51.165,92.373 51.165,83.674 C51.165,74.975 58.216,67.924 66.915,67.924 L66.915,67.924 Z M66.915,147.757 C58.216,147.757 51.165,140.706 51.165,132.007 C51.165,123.308 58.216,116.257 66.915,116.257 C75.613,116.257 82.665,123.308 82.665,132.007 C82.665,140.706 75.613,147.757 66.915,147.757 L66.915,147.757 Z M100.727,158.842 L100.727,55.955 C133.727,61.783 149.751,76.455 149.751,106.076 C149.751,137.258 133.727,153.173 100.727,158.842 L100.727,158.842 Z" id="P"></path>
            </g>
            <g id="Guides" transform="translate(1.000000, 1.000000)"></g>
        </g>
    </g>
</svg>